# xmcd CD database file
#
# Track frame offsets:
#	150
#	18757
#	34674
#
# Disc length: 698 seconds
#
# Revision: 1
# Processed by: cddbd v1.5.1PL0 Copyright (c) Steve Scherf et al.
# Submitted via: CDex 1.51
#
DISCID=1502b803
DTITLE=Sowelu - Do You Remember That？
DYEAR=2005
DGENRE=R&B
TTITLE0=Do You Remember That？
TTITLE1=MOON ON THE WATER
TTITLE2=Do You Remember That？(club mix)
EXTD=YEAR: 2005
EXTT0=
EXTT1=
EXTT2=
PLAYORDER=
